<?xml version="1.0" standalone="no"?>
<!DOCTYPE svg PUBLIC "-//W3C//DTD SVG 20010904//EN"
 "http://www.w3.org/TR/2001/REC-SVG-20010904/DTD/svg10.dtd">
<svg version="1.0" xmlns="http://www.w3.org/2000/svg"
 width="298.000000pt" height="359.000000pt" viewBox="0 0 298.000000 359.000000"
 preserveAspectRatio="xMidYMid meet">

<g transform="translate(0.000000,359.000000) scale(0.100000,-0.100000)"
fill="#000000" stroke="none">
<path d="M840 2400 l0 -140 60 0 60 0 0 80 0 80 125 0 125 0 0 -410 0 -410
-70 0 -70 0 0 -60 0 -60 190 0 190 0 0 -150 0 -150 -60 0 -60 0 0 -60 0 -60
415 0 415 0 0 145 0 146 -57 -3 -58 -3 -3 -82 -3 -83 -224 0 -225 0 0 410 0
410 60 0 60 0 0 60 0 60 -185 0 -185 0 0 150 0 150 125 0 125 0 0 -64 c0 -92
3 -96 66 -96 l54 0 0 140 0 140 -435 0 -435 0 0 -140z m610 -600 l0 -200 -55
0 -55 0 0 200 0 200 55 0 55 0 0 -200z"/>
</g>
</svg>
